<svg version="1" xmlns="http://www.w3.org/2000/svg" width="613.333" height="613.333" viewBox="0 0 460.000000 460.000000"><path d="M32.7 228.8C16.3 326.5 2.9 406.8 3 407.2c0 1.2 163.7.9 181.2-.2 24.5-1.7 44.7-5.1 55.1-9.5 2-.8 3.9-1.5 4.2-1.5.3 0 .5 1.8.5 4v4h106l-.1-67.3c-.1-66.2-.1-67.1-1.9-60.7-4.5 16.7-15 38.5-27.3 56.9-8.9 13.4-27.4 32-41.5 42-9.1 6.4-31.9 19.1-34.3 19.1-.5 0-.9-29.5-.9-68.8 0-59-.2-69.1-1.5-70.8-1.4-1.8-1.4-1.8-1.5 0 0 3.3-6.8 22.2-10.6 29.8-5 10-10.5 17.8-17.2 24.7-14.1 14.3-31.5 19.1-69.6 19.1h-20.8l.5-2.8c.2-1.5 7.8-46.4 16.8-99.9l16.3-97.2 6.1-.3 6.1-.3L150.9 97c-9.8-16.8-19.9-34-22.6-38.2l-4.8-7.7L93 51H62.5L32.7 228.8zM347.3 86c-8.7 17-16.1 31-16.5 31-.4 0-2-1.9-3.4-4.3-11.7-18.5-36.1-39-57.9-48.5-6.3-2.8-21.5-7.5-22.1-6.9-.1.1 11.9 22.9 26.8 50.7 14.8 27.8 28.1 52.8 29.6 55.7l2.7 5.2 12.1-23.4 12-23.4 4 6.7c2.1 3.7 4.1 7.4 4.2 8.2.2.8 2 6 3.9 11.5 4.3 12.5 7.8 27.8 9.4 41.7 1.2 10.7.7 51.1-.7 57-.4 1.6-.2 2.8.4 2.8 1 0 106.2-192.3 106.2-194.1 0-.5-18.6-.9-47.4-.9h-47.5l-15.8 31z"/></svg>